<svg xmlns="http://www.w3.org/2000/svg" width="63" height="63" viewBox="0 0 63 63">
  <g id="Group_78" data-name="Group 78" transform="translate(-93 -739)">
    <g id="Ellipse_14" data-name="Ellipse 14" transform="translate(93 739)" fill="#f0509d" stroke="#f0509d" stroke-width="1">
      <circle cx="31.5" cy="31.5" r="31.5" stroke="none"/>
      <circle cx="31.5" cy="31.5" r="31" fill="none"/>
    </g>
    <path id="Icon_awesome-question" data-name="Icon awesome-question" d="M15.327,0C9.207,0,5.243,2.508,2.131,6.979a1.842,1.842,0,0,0,.4,2.521l3.308,2.508a1.84,1.84,0,0,0,2.55-.318C10.306,9.284,11.731,7.9,14.731,7.9c2.359,0,5.277,1.518,5.277,3.806,0,1.729-1.427,2.617-3.757,3.923-2.716,1.523-6.31,3.418-6.31,8.159v.751a1.84,1.84,0,0,0,1.84,1.84h5.557a1.84,1.84,0,0,0,1.84-1.84v-.443c0-3.286,9.605-3.423,9.605-12.316C28.783,5.08,21.836,0,15.327,0Zm-.768,28.635a5.311,5.311,0,1,0,5.311,5.311A5.317,5.317,0,0,0,14.559,28.635Z" transform="translate(109.272 750.379)" fill="#3e3d3d"/>
  </g>
</svg>
