<svg xmlns="http://www.w3.org/2000/svg" width="55" height="55" viewBox="0 0 55 55">
  <g id="Group_78" data-name="Group 78" transform="translate(-93 -739)">
    <g id="Ellipse_14" data-name="Ellipse 14" transform="translate(93 739)" fill="#f0509d" stroke="#f0509d" stroke-width="1">
      <circle cx="27.5" cy="27.5" r="27.5" stroke="none"/>
      <circle cx="27.5" cy="27.5" r="27" fill="none"/>
    </g>
    <path id="Icon_awesome-question" data-name="Icon awesome-question" d="M13.57,0A12.926,12.926,0,0,0,2.088,6.073a1.6,1.6,0,0,0,.345,2.193l2.878,2.182a1.6,1.6,0,0,0,2.219-.277c1.671-2.094,2.911-3.3,5.521-3.3,2.052,0,4.591,1.321,4.591,3.311,0,1.5-1.242,2.277-3.269,3.413-2.363,1.325-5.491,2.974-5.491,7.1v.653a1.6,1.6,0,0,0,1.6,1.6h4.835a1.6,1.6,0,0,0,1.6-1.6v-.385c0-2.859,8.357-2.979,8.357-10.716C25.278,4.42,19.233,0,13.57,0ZM12.9,24.916a4.621,4.621,0,1,0,4.621,4.621A4.627,4.627,0,0,0,12.9,24.916Z" transform="translate(106.925 748.901)" fill="#3e3d3d"/>
  </g>
</svg>
